<svg width="64" height="64" viewBox="0 0 110 88" xmlns="http://www.w3.org/2000/svg">
  <!-- Answer Any Call — phone receiver + EKG heartbeat waveform (matches
       public/logo.svg + components/brand/logo-mark.tsx). Browser-tab icon;
       previously still the unrebranded vendor LeadStack chevron mark. -->
  <path fill="#1B3A6B" d="
    M8 22
    C8 14 14 8 22 8
    L28 8
    C32 8 36 11 37 15
    L39 25
    C40 29 38 34 34 35
    L31 37
    C34 46 42 54 51 57
    L53 54
    C55 50 59 48 63 49
    L73 52
    C77 53 80 57 80 62
    L80 68
    C80 76 74 82 66 82
    C38 82 8 52 8 24
    Z
  "/>
  <path
    d="M54 40 L63 40 L67 25 L74 55 L79 33 L84 46 L91 40 L104 40"
    stroke="#29B6E2"
    stroke-width="5"
    stroke-linecap="round"
    stroke-linejoin="round"
    fill="none"
  />
</svg>
